<?xml version="1.0" standalone="no"?>
<!DOCTYPE svg PUBLIC "-//W3C//DTD SVG 20010904//EN"
 "http://www.w3.org/TR/2001/REC-SVG-20010904/DTD/svg10.dtd">
<svg version="1.0" xmlns="http://www.w3.org/2000/svg"
 width="256.000000pt" height="256.000000pt" viewBox="0 0 256.000000 256.000000"
 preserveAspectRatio="xMidYMid meet">

<g transform="translate(0.000000,256.000000) scale(0.100000,-0.100000)"
fill="#000000" stroke="none">
<path d="M1075 2422 c-5 -6 -30 -12 -54 -15 -29 -3 -52 -13 -70 -31 -17 -18
-20 -25 -8 -20 10 3 17 1 17 -5 0 -6 -5 -11 -12 -11 -6 0 -9 -3 -6 -6 4 -3 17
1 30 10 14 9 29 12 37 7 7 -5 23 -6 35 -3 20 5 20 5 3 -12 -9 -10 -15 -22 -12
-27 9 -14 25 -11 25 6 0 9 9 15 25 15 39 0 32 -33 -10 -50 -19 -8 -35 -17 -35
-20 0 -5 -23 -6 -49 -1 -3 1 0 6 7 13 19 19 14 29 -13 22 -29 -7 -32 2 -7 30
l17 21 -23 -19 c-16 -14 -25 -17 -33 -9 -14 14 -39 6 -39 -13 0 -8 -9 -14 -21
-14 -19 0 -19 1 -4 16 9 9 14 19 11 22 -9 9 -37 -20 -54 -57 -13 -26 -28 -40
-60 -51 -23 -9 -52 -27 -65 -40 l-22 -23 28 17 c16 9 38 16 51 14 12 -1 31 5
40 15 10 9 26 17 37 17 10 0 19 5 19 10 0 6 8 10 18 10 9 0 28 9 42 20 14 11
30 20 35 19 6 0 2 -6 -8 -13 -18 -14 -18 -15 0 -24 25 -15 9 -26 -37 -27 -24
0 -40 -5 -40 -12 0 -13 -74 -39 -103 -35 -13 1 -17 -3 -15 -15 2 -10 -14 -33
-38 -55 -33 -30 -43 -48 -48 -81 -8 -56 -10 -64 -28 -122 -9 -27 -20 -65 -23
-82 -4 -18 -11 -33 -15 -33 -5 0 -9 -26 -10 -57 0 -32 0 -87 -1 -123 0 -36 7
-85 16 -109 8 -24 15 -59 15 -78 0 -27 8 -42 34 -67 21 -19 42 -52 53 -86 14
-40 25 -56 40 -58 14 -2 22 4 26 19 7 25 -7 146 -23 199 -5 19 -10 107 -10
196 l0 161 34 69 c19 38 44 78 54 89 63 66 138 105 202 105 21 0 45 6 52 13 9
9 56 13 153 15 155 3 215 -11 302 -70 23 -15 46 -28 50 -28 16 0 70 -60 88
-96 9 -19 19 -50 21 -67 3 -18 8 -59 13 -92 5 -33 18 -95 30 -138 12 -47 19
-100 17 -130 -2 -36 3 -62 15 -83 9 -17 17 -38 17 -45 -2 -36 3 -48 17 -43 14
6 19 -5 16 -34 -2 -11 2 -11 20 -2 18 10 21 18 16 56 -7 62 10 55 19 -8 l7
-53 11 77 c8 49 18 84 31 98 24 26 34 132 14 156 -7 9 -9 18 -3 22 5 4 11 16
12 27 2 11 9 23 15 27 8 5 6 12 -8 22 -11 9 -24 16 -28 16 -5 0 -5 4 -2 10 3
5 -3 28 -15 52 -11 23 -20 50 -20 60 0 10 -4 18 -9 18 -5 0 -15 16 -21 35 -6
19 -15 33 -20 30 -4 -3 -11 7 -15 22 -3 15 -20 45 -36 67 -29 39 -38 63 -20
52 5 -4 11 -1 13 5 6 17 37 -1 53 -30 10 -18 14 -21 15 -9 0 28 -41 88 -71
104 -16 8 -30 18 -30 22 -1 4 -3 20 -5 36 -2 16 -10 36 -19 45 -15 15 -15 14
-1 -14 18 -35 13 -44 -12 -22 -10 10 -23 17 -29 17 -6 0 -13 5 -15 12 -2 6
-13 12 -24 12 -23 2 -44 14 -44 26 0 4 10 6 23 3 21 -4 20 -4 -3 10 -14 8 -29
10 -34 5 -13 -11 -29 -10 -22 1 8 12 -90 59 -151 72 -29 6 -53 15 -53 21 0 6
-7 8 -15 4 -8 -3 -20 3 -28 14 -7 10 -25 24 -40 31 -15 7 -27 16 -27 21 0 4
-5 8 -11 8 -5 0 -7 -5 -3 -11 4 -8 1 -8 -13 -1 -28 16 -136 25 -148 14z m163
-150 c-13 -16 -25 -25 -27 -20 -3 10 29 46 42 47 5 1 -2 -12 -15 -27z m-357
-12 c-34 -29 -44 -23 -32 18 1 1 13 2 29 2 l27 -1 -24 -19z m839 -200 c0 -5
-4 -10 -9 -10 -6 0 -13 5 -16 10 -3 6 1 10 9 10 9 0 16 -4 16 -10z"/>
<path d="M1625 2270 c3 -5 11 -10 16 -10 6 0 7 5 4 10 -3 6 -11 10 -16 10 -6
0 -7 -4 -4 -10z"/>
<path d="M672 2129 c-7 -11 -11 -23 -9 -25 7 -7 29 24 25 36 -2 6 -9 1 -16
-11z"/>
<path d="M2332 1753 c-37 -18 -59 -36 -69 -58 -8 -18 -28 -40 -44 -49 -37 -22
-36 -30 6 -54 22 -14 36 -31 40 -49 3 -15 10 -42 15 -59 6 -17 10 -55 10 -86
0 -61 14 -113 39 -142 10 -12 16 -37 16 -71 0 -77 20 -95 102 -95 l63 0 0 335
0 335 -26 10 c-42 16 -96 10 -152 -17z"/>
<path d="M1360 1663 c-52 -36 -70 -72 -70 -138 l0 -30 33 37 c71 78 166 89
278 32 39 -19 73 -33 76 -31 7 7 -28 58 -57 84 -31 27 -57 37 -136 52 -80 15
-95 14 -124 -6z"/>
<path d="M945 1639 c-21 -5 -42 -13 -45 -17 -3 -4 -17 -13 -31 -21 -30 -15
-69 -78 -69 -110 0 -29 8 -27 55 18 51 50 94 62 165 47 30 -6 60 -15 67 -19
19 -12 28 15 9 28 -9 7 -15 17 -14 23 4 12 -40 52 -58 52 -7 0 -18 2 -26 4 -7
2 -31 0 -53 -5z"/>
<path d="M1394 1542 c-23 -11 -43 -29 -47 -41 -4 -18 -1 -21 28 -21 19 0 37 5
41 11 4 8 9 7 15 -2 6 -10 32 -14 89 -14 44 0 80 -3 80 -6 0 -14 -60 -32 -123
-37 -67 -5 -77 -22 -13 -22 31 0 129 31 134 43 2 4 11 7 20 7 10 1 28 7 42 15
l25 14 -27 1 c-16 0 -28 4 -28 8 0 16 -95 54 -145 58 -36 4 -62 -1 -91 -14z
m131 -6 c48 -20 44 -25 -9 -13 -37 8 -54 7 -91 -7 -60 -23 -68 -15 -13 13 51
25 67 26 113 7z"/>
<path d="M40 1512 c0 -47 16 -56 26 -16 4 17 1 31 -10 42 -15 15 -16 13 -16
-26z"/>
<path d="M992 1521 c-9 -5 0 -10 27 -15 57 -9 59 -24 2 -18 -35 3 -59 -1 -91
-17 l-43 -20 19 21 c19 21 19 21 -1 10 -11 -6 -33 -23 -48 -40 -24 -25 -26
-30 -13 -41 13 -11 18 -10 31 2 8 9 44 18 80 22 51 6 68 12 76 28 10 17 13 18
20 5 5 -10 18 -14 34 -10 28 5 34 22 8 22 -16 1 -16 2 1 12 18 10 17 11 -10
23 -47 19 -78 25 -92 16z"/>
<path d="M1668 1513 c7 -3 16 -2 19 1 4 3 -2 6 -13 5 -11 0 -14 -3 -6 -6z"/>
<path d="M1677 1429 c7 -7 15 -10 18 -7 3 3 -2 9 -12 12 -14 6 -15 5 -6 -5z"/>
<path d="M40 1324 l0 -76 33 7 c17 3 86 8 151 11 137 5 161 -3 172 -61 8 -47
-2 -82 -27 -96 -12 -6 -55 -13 -97 -16 -41 -2 -86 -9 -99 -14 -13 -5 -49 -9
-79 -9 l-54 0 0 -35 c0 -34 1 -35 38 -35 20 0 114 9 207 20 94 11 176 20 183
20 11 0 13 30 10 148 -3 139 -4 147 -23 147 -11 1 -30 -5 -42 -13 -15 -9 -27
-11 -39 -4 -9 5 -36 7 -61 4 -76 -8 -202 25 -232 62 -30 36 -41 19 -41 -60z"/>
<path d="M985 1380 c-18 -8 -17 -9 7 -9 15 -1 30 4 33 9 7 12 -12 12 -40 0z"/>
<path d="M1436 1251 c-3 -5 -26 -6 -51 -3 -32 3 -51 0 -63 -10 -9 -8 -32 -21
-50 -28 -30 -12 -37 -11 -73 9 -35 20 -44 21 -70 11 -16 -7 -29 -16 -29 -20 0
-4 24 -15 53 -25 28 -9 63 -27 77 -40 18 -16 38 -23 70 -23 47 -1 135 15 93
17 -13 1 -23 5 -23 10 0 10 3 13 59 74 19 20 30 37 24 37 -7 0 -14 -4 -17 -9z"/>
<path d="M1570 1208 c11 -18 20 -44 20 -58 0 -14 5 -32 10 -40 8 -13 10 -12
10 3 0 9 5 17 10 17 14 0 13 -23 -2 -38 -9 -9 -17 -7 -34 9 -21 20 -23 20 -47
4 -19 -12 -53 -17 -124 -19 -143 -5 -299 -23 -368 -44 l-60 -18 60 -29 c57
-27 95 -38 95 -27 0 3 -8 11 -17 18 -14 10 -16 17 -7 30 15 25 47 31 189 40
l125 7 0 -25 c0 -35 -19 -51 -38 -32 -19 19 -29 10 -12 -11 17 -21 59 -12 129
28 43 24 57 28 71 19 24 -15 56 16 70 69 11 41 11 42 -26 76 -21 19 -46 39
-56 44 -17 9 -16 7 2 -23z"/>
<path d="M1687 1163 c-3 -43 -9 -91 -12 -108 -5 -24 -2 -21 14 14 15 30 21 63
21 107 0 89 -16 80 -23 -13z"/>
<path d="M943 1163 c-35 -45 -45 -86 -27 -110 12 -16 13 -15 14 11 0 15 12 50
27 77 33 61 25 73 -14 22z"/>
<path d="M1776 1124 c-3 -9 -6 -38 -6 -65 0 -27 -3 -49 -7 -49 -5 0 -8 -14 -9
-30 -1 -32 -10 -48 -20 -38 -3 4 -1 16 6 27 16 31 -3 25 -22 -6 -21 -35 -96
-109 -103 -101 -3 3 0 24 8 46 9 26 10 39 3 36 -15 -7 -56 -72 -56 -89 0 -8
-21 -36 -47 -62 -45 -46 -84 -69 -180 -108 -51 -21 -164 -25 -186 -7 -11 9
-17 10 -22 2 -4 -6 -13 -9 -21 -6 -8 3 -14 1 -14 -4 0 -19 52 -110 60 -105 4
3 13 -2 20 -10 10 -13 9 -15 -10 -15 -34 0 -21 -30 25 -54 22 -11 69 -24 105
-27 36 -4 84 -10 108 -14 33 -6 42 -5 42 6 0 8 9 19 19 24 121 62 123 64 126
145 2 44 37 120 56 120 5 0 10 10 10 23 1 18 2 19 6 4 4 -17 6 -16 18 5 6 14
15 41 19 61 7 36 21 48 28 25 7 -19 28 2 28 28 0 15 -6 24 -15 24 -8 0 -15 3
-15 6 0 9 48 45 57 44 4 -1 11 12 15 27 3 15 15 52 27 82 11 30 20 55 18 56
-1 1 -16 5 -34 8 -23 5 -33 2 -37 -9z"/>
<path d="M1035 1060 c-3 -5 -1 -10 4 -10 6 0 11 5 11 10 0 6 -2 10 -4 10 -3 0
-8 -4 -11 -10z"/>
<path d="M745 970 c-67 -5 -73 -7 -140 -62 -74 -60 -65 -57 -279 -105 -106
-23 -112 -33 -96 -150 6 -49 15 -104 20 -123 5 -19 10 -60 11 -91 1 -36 8 -63
20 -77 l17 -22 74 26 c40 14 84 27 98 30 14 3 73 28 132 56 59 27 133 55 165
61 48 9 62 16 78 41 11 17 35 40 52 51 31 20 32 22 33 94 0 70 -2 78 -39 135
-21 34 -44 78 -51 98 -6 21 -15 39 -18 41 -4 1 -38 0 -77 -3z"/>
<path d="M1732 703 l5 -118 42 -62 c28 -41 52 -65 73 -72 39 -14 71 -14 63 -1
-3 6 -1 10 5 10 6 0 10 -8 8 -17 -4 -22 235 -146 264 -137 10 3 26 0 34 -7 11
-9 18 -9 26 -1 7 7 22 12 34 12 12 0 25 7 28 16 5 14 16 16 64 11 31 -3 74 -9
95 -13 l37 -7 0 67 c0 73 5 69 -94 81 -36 4 -69 20 -132 61 -46 31 -88 62 -94
69 -6 8 -18 11 -26 8 -12 -4 -14 2 -12 29 2 30 -4 41 -36 69 -57 50 -65 53
-105 39 -44 -15 -63 -35 -90 -90 -17 -36 -19 -49 -11 -92 12 -63 13 -58 -4
-58 -18 0 -71 161 -63 191 4 15 -1 23 -18 29 -13 5 -36 29 -50 54 -15 26 -32
46 -37 46 -7 0 -9 -39 -6 -117z"/>
<path d="M40 760 c0 -11 2 -20 5 -20 2 0 9 9 15 20 9 16 8 20 -5 20 -8 0 -15
-9 -15 -20z"/>
<path d="M902 588 c-25 -25 -5 -98 35 -128 15 -12 16 -12 6 0 -8 8 -13 41 -13
77 0 63 -6 73 -28 51z"/>
<path d="M1720 393 c-7 -21 -26 -55 -42 -75 -35 -45 -27 -50 13 -9 15 16 33
48 39 71 14 53 6 64 -10 13z"/>
<path d="M2250 280 c-8 -5 -10 -10 -5 -11 51 -7 88 -21 74 -30 -8 -5 1 -10 25
-14 21 -4 45 -15 54 -25 9 -10 38 -27 65 -38 l47 -21 0 25 c0 24 -17 30 -75
26 -16 -2 -17 0 -5 7 12 8 8 13 -20 26 l-35 16 35 -6 35 -6 -24 19 c-22 18
-103 42 -139 42 -9 0 -24 -5 -32 -10z"/>
<path d="M1585 220 c-3 -6 1 -7 9 -4 18 7 21 14 7 14 -6 0 -13 -4 -16 -10z"/>
</g>
</svg>
